<?xml version="1.0" standalone="no"?>
<!DOCTYPE svg PUBLIC "-//W3C//DTD SVG 20010904//EN"
 "http://www.w3.org/TR/2001/REC-SVG-20010904/DTD/svg10.dtd">
<svg version="1.0" xmlns="http://www.w3.org/2000/svg"
 width="500.000000pt" height="500.000000pt" viewBox="0 0 500.000000 500.000000"
 preserveAspectRatio="xMidYMid meet">

<g transform="translate(0.000000,500.000000) scale(0.100000,-0.100000)"
fill="#000000" stroke="none">
<path d="M2426 2933 c-3 -236 -7 -594 -8 -798 -3 -337 -2 -370 13 -373 23 -4
27 98 34 921 6 661 5 677 -13 677 -19 0 -20 -16 -26 -427z"/>
<path d="M3010 3225 c0 -23 3 -25 50 -25 l50 0 0 -250 0 -250 35 0 35 0 0 250
0 250 50 0 c47 0 50 2 50 25 l0 25 -135 0 -135 0 0 -25z"/>
<path d="M3320 2975 l0 -275 30 0 29 0 3 118 3 117 43 -1 c66 -1 76 -18 82
-132 l5 -97 30 -3 30 -3 -5 104 c-5 103 -23 157 -52 157 -7 0 1 14 18 31 27
28 29 36 29 108 0 129 -23 151 -160 151 l-85 0 0 -275z m165 211 c14 -10 20
-30 23 -77 5 -84 -14 -112 -79 -113 l-44 -1 -3 103 -3 102 44 0 c24 0 52 -6
62 -14z"/>
<path d="M3630 2975 l0 -275 115 0 115 0 0 30 0 30 -80 0 -80 0 0 95 0 95 65
0 65 0 0 30 0 30 -65 0 -65 0 0 95 0 95 80 0 c79 0 80 0 80 25 l0 25 -115 0
-115 0 0 -275z"/>
<path d="M3920 2975 l0 -275 30 0 30 0 0 90 c0 66 5 100 17 123 l17 32 58
-122 c56 -116 61 -123 88 -123 17 0 30 2 30 5 0 3 -31 71 -70 151 l-70 146 69
124 70 124 -32 0 c-31 0 -35 -6 -102 -128 l-70 -127 -3 128 -3 127 -29 0 -30
0 0 -275z"/>
<path d="M1247 3179 c-39 -23 -41 -86 -3 -111 38 -26 96 7 96 53 0 49 -53 82
-93 58z"/>
<path d="M1548 3143 c-15 -4 -18 -17 -18 -83 l0 -78 30 11 c25 9 37 8 75 -11
69 -34 85 -21 85 70 0 67 -1 70 -21 65 -12 -3 -39 3 -60 14 -37 19 -57 21 -91
12z"/>
<path d="M1470 3055 c0 -69 3 -85 15 -85 12 0 15 16 15 85 0 69 -3 85 -15 85
-12 0 -15 -16 -15 -85z"/>
<path d="M1150 2985 c-51 -51 -53 -56 -40 -79 7 -14 26 -37 41 -52 24 -23 31
-25 44 -14 20 17 19 29 -7 57 -21 22 -21 23 -3 43 10 11 21 20 25 20 13 0 20
-310 8 -381 -10 -62 -9 -71 6 -88 17 -19 17 -22 -11 -71 -22 -41 -32 -50 -48
-45 -84 22 -87 21 -135 -54 l-45 -70 -110 -29 -110 -29 -122 -214 -122 -214
856 -3 c471 -1 858 0 860 2 2 2 -8 28 -22 57 -25 50 -35 59 -120 108 l-92 53
-53 114 c-29 63 -57 114 -62 114 -6 0 -28 -14 -49 -31 -28 -22 -40 -27 -44
-17 -103 287 -159 435 -168 444 -7 6 -53 28 -104 49 l-92 39 -3 65 c-3 65 -4
66 -40 86 -34 18 -38 24 -38 60 l1 40 16 -26 c32 -51 157 -47 137 4 -4 12 -18
17 -45 17 -35 0 -41 4 -65 43 -15 23 -32 45 -38 49 -6 4 -43 8 -81 8 l-71 0
-54 -55z m210 -248 c0 -23 -11 -57 -27 -86 l-28 -48 -2 103 -2 103 29 -17 c25
-14 30 -23 30 -55z m150 -150 l75 -24 37 -139 c21 -76 36 -143 35 -148 -2 -4
-30 33 -63 83 l-60 91 -29 -30 -28 -29 -34 26 c-33 25 -37 26 -80 15 -25 -7
-47 -11 -49 -9 -2 1 17 44 42 95 31 64 50 92 62 92 9 0 51 -11 92 -23z m-337
-277 c7 -6 -10 -15 -91 -47 -9 -4 -8 5 4 30 15 32 20 35 48 30 17 -3 35 -9 39
-13z m-208 -149 c-40 -35 -205 -140 -204 -129 0 7 10 33 22 58 21 43 25 45 92
61 83 20 102 22 90 10z m939 -74 c24 -62 20 -65 -24 -22 -36 35 -38 39 -22 51
25 20 28 18 46 -29z"/>
<path d="M1470 2779 c0 -68 3 -90 13 -87 8 3 13 33 15 91 2 73 0 87 -13 87
-12 0 -15 -16 -15 -91z"/>
<path d="M2940 2458 c-52 -35 -62 -86 -57 -288 4 -175 11 -207 54 -235 14 -9
46 -16 75 -17 61 0 97 23 115 73 17 50 17 370 -1 412 -20 48 -50 69 -103 74
-39 4 -55 0 -83 -19z m127 -68 c10 -18 13 -72 11 -201 -3 -158 -5 -179 -22
-198 -23 -25 -63 -27 -88 -4 -16 14 -18 35 -18 209 0 218 3 228 69 222 26 -2
39 -10 48 -28z"/>
<path d="M4444 2470 c-33 -13 -62 -57 -69 -104 -10 -64 14 -110 100 -191 75
-71 93 -104 81 -149 -21 -84 -126 -68 -126 19 0 32 -2 35 -30 35 -27 0 -30 -3
-30 -30 0 -44 24 -96 54 -115 33 -22 109 -22 142 0 30 19 54 71 54 117 0 51
-35 109 -101 167 -67 59 -93 106 -83 149 10 41 23 52 60 52 37 0 64 -29 64
-67 0 -19 5 -23 30 -23 35 0 39 18 14 79 -23 59 -97 87 -160 61z"/>
<path d="M2580 2445 c0 -23 3 -25 50 -25 l50 0 0 -250 0 -250 30 0 30 0 2 248
3 247 53 3 c48 3 52 5 52 28 l0 24 -135 0 -135 0 0 -25z"/>
<path d="M3200 2195 l0 -275 30 0 30 0 0 109 0 109 60 4 c49 4 66 9 88 31 26
26 27 32 27 133 l0 106 -33 29 c-30 27 -38 29 -117 29 l-85 0 0 -275z m160
205 c16 -16 20 -33 20 -93 0 -90 -11 -107 -73 -114 l-47 -6 0 117 0 116 40 0
c27 0 47 -7 60 -20z"/>
<path d="M3490 2195 l0 -275 30 0 30 0 0 110 0 110 46 0 c57 0 108 23 123 56
17 37 14 189 -4 224 -22 42 -43 50 -139 50 l-86 0 0 -275z m158 209 c20 -14
22 -24 22 -98 0 -96 -6 -106 -75 -114 l-45 -5 0 117 0 116 38 0 c21 0 48 -7
60 -16z"/>
<path d="M3780 2195 l0 -275 115 0 115 0 0 30 0 30 -80 0 -80 0 0 95 0 95 65
0 65 0 0 30 0 30 -65 0 -65 0 0 95 0 95 80 0 c79 0 80 0 80 25 l0 25 -115 0
-115 0 0 -275z"/>
<path d="M4070 2195 l0 -275 30 0 30 0 0 120 c0 119 0 120 24 120 12 0 37 -5
54 -11 39 -13 52 -53 52 -156 l0 -73 33 0 32 0 -6 102 c-6 105 -16 139 -47
157 -16 9 -15 11 5 26 53 37 55 185 3 237 -27 27 -33 28 -119 28 l-91 0 0
-275z m161 206 c21 -17 24 -28 24 -85 0 -79 -13 -96 -79 -103 l-46 -6 0 107 0
106 39 0 c23 0 48 -8 62 -19z"/>
</g>
</svg>
